# xmcd
#
# Track frame offsets:
#	150
#	14451
#	28912
#	43948
#	63463
#	82557
#	89857
#	108174
#	122217
#	141290
#	160237
#	177547
#
# Disc length: 2436 seconds
#
# Revision: 1
# Processed by: cddbd v1.5.2PL0 Copyright (c) Steve Scherf et al.
# Submitted via: EZCDAudioConverter 1.3.4.1
#
DISCID=a609820c
DTITLE=Lonstar - Różne Kolory
DYEAR=1900
DGENRE=Country
TTITLE0=Głodny i spragniony ciebie
TTITLE1=Różne kolory (ale los ten sam)
TTITLE2=W oczekiwaniu na wschód słońca
TTITLE3=Daj Panie
TTITLE4=Ballada wolnej drogi
TTITLE5=A song for Jerry
TTITLE6=A ty szafo graj..
TTITLE7=Twarz i maska
TTITLE8=Dosyć łez
TTITLE9=W mieście i za miastem
TTITLE10=2000 koni
TTITLE11=Sam na tej stacji
EXTD=
EXTT0=
EXTT1=
EXTT2=
EXTT3=
EXTT4=
EXTT5=
EXTT6=
EXTT7=
EXTT8=
EXTT9=
EXTT10=
EXTT11=
PLAYORDER=
